<svg width="182" height="176" viewBox="0 0 182 176" fill="none" xmlns="http://www.w3.org/2000/svg">
<path d="M88.0066 150.621C66.1141 150.621 46.7611 139.412 35.4646 122.598C35.7273 105.084 70.4926 95.4514 88.0066 95.4514C105.521 95.4514 140.286 105.084 140.549 122.598C129.252 139.412 109.899 150.621 88.0066 150.621ZM88.0066 26.271C94.9741 26.271 101.656 29.0389 106.583 33.9656C111.51 38.8924 114.278 45.5746 114.278 52.5421C114.278 59.5096 111.51 66.1917 106.583 71.1185C101.656 76.0453 94.9741 78.8131 88.0066 78.8131C81.0391 78.8131 74.357 76.0453 69.4302 71.1185C64.5034 66.1917 61.7356 59.5096 61.7356 52.5421C61.7356 45.5746 64.5034 38.8924 69.4302 33.9656C74.357 29.0389 81.0391 26.271 88.0066 26.271ZM88.0066 0C76.5068 0 65.1195 2.26507 54.495 6.66588C43.8705 11.0667 34.2169 17.5171 26.0852 25.6487C9.66263 42.0713 0.436523 64.3451 0.436523 87.5701C0.436523 110.795 9.66263 133.069 26.0852 149.492C34.2169 157.623 43.8705 164.074 54.495 168.474C65.1195 172.875 76.5068 175.14 88.0066 175.14C111.232 175.14 133.505 165.914 149.928 149.492C166.351 133.069 175.577 110.795 175.577 87.5701C175.577 39.1438 136.17 0 88.0066 0Z" fill="#F1F1F1"/>
<g clip-path="url(#clip0_577_2743)">
<path fill-rule="evenodd" clip-rule="evenodd" d="M152.066 135.807C152.215 135.61 152.407 135.449 152.627 135.339C152.848 135.229 153.092 135.171 153.339 135.171H166.061C166.308 135.171 166.551 135.229 166.772 135.339C166.993 135.449 167.185 135.61 167.333 135.807L171.627 141.532H177.192C178.458 141.532 179.671 142.035 180.566 142.929C181.461 143.824 181.963 145.038 181.963 146.303V165.386C181.963 166.651 181.461 167.865 180.566 168.759C179.671 169.654 178.458 170.157 177.192 170.157H142.207C140.942 170.157 139.728 169.654 138.833 168.759C137.939 167.865 137.436 166.651 137.436 165.386V146.303C137.436 145.038 137.939 143.824 138.833 142.929C139.728 142.035 140.942 141.532 142.207 141.532H147.773L152.066 135.807ZM167.527 154.925C167.527 157.001 166.702 158.992 165.234 160.46C163.766 161.928 161.776 162.753 159.7 162.753C157.624 162.753 155.633 161.928 154.165 160.46C152.697 158.992 151.872 157.001 151.872 154.925C151.872 152.849 152.697 150.859 154.165 149.391C155.633 147.923 157.624 147.098 159.7 147.098C161.776 147.098 163.766 147.923 165.234 149.391C166.702 150.859 167.527 152.849 167.527 154.925Z" fill="#004741"/>
</g>
<defs>
<clipPath id="clip0_577_2743">
<rect width="44.5272" height="44.5272" fill="white" transform="translate(137.437 130.4)"/>
</clipPath>
</defs>
</svg>
